<?xml version="1.0" encoding="utf-8"?>
<?xml-stylesheet type="text/xsl" href="rss1.xsl"?>
<rss version="2.0" xmlns:atom="http://www.w3.org/2005/Atom" xmlns:content="http://purl.org/rss/1.0/modules/content/" xmlns:dc="http://purl.org/dc/elements/1.1/" xmlns:media="http://search.yahoo.com/mrss/">
<channel>
 <title>Getty</title>
 <link>http://www.gettyimg.com/</link>
 <atom:link href="http://www.gettyimg.com/" rel="self" type="application/rss+xml" />

 
                <item>
                <title><![CDATA[【Instrumentals / Karaoke (lossless)】WAV - Taylor Swift: 1989 (Taylor's Version): Karaoke | WAV 16bit 44.1kHz | LRC Synced Lyric Files]]></title>
                <link><![CDATA[https://sharemania.us/threads/taylor-swift-1989-taylors-version-karaoke-wav-16bit-44-1khz-lrc-synced-lyric-files.231216/]]></link>
                <description><![CDATA[<article>
<blockquote class="messageText SelectQuoteContainer ugc baseHtml">
<div style="text-align: center"><span style="font-family: 'Georgia'"><img src="https://i.imgur.com/O6WULkS.jpg" class="bbCodeImage LbImage" alt="[​IMG]" data-url="https://i.imgur.com/O6WULkS.jpg" style=""> </span><br>
<b><span style="font-family: 'Georgia'"><span style="font-size: 18px"><span style="color: #0080ff">Taylor Swift |Taylor Swift Karaoke: 1989 (Taylor's Version)</span></span></span></b><br>
<span style="font-family: 'Georgia'"><span style="color: #99ccff"><b>Album: </b>Taylor Swift Karaoke: <i>1989 (Taylor's Version) (Unofficial Release)</i><br>
<b>Artist: </b>Taylor Swift<br>
<b>Quality/Codec:</b> FLAC 16bit/44.1kHz<br>
<b>Release Date</b>: 10/27/2023<br>
<b>Other:</b> LRC synced lyric files in the .rar</span><br>
<br>
<div class="bbCodeBlock bbCodeQuote">
<aside>
<blockquote class="quoteContainer"><div class="quote">When the flowers that we grew together died of thirst</div><div class="quoteExpand">Click to expand...</div></blockquote>
</aside>
</div><b>Genre:</b> Pop<br>
<br>
<b>Tracklist:</b><br>
<b>1. </b>Welcome To New York (Taylor's Version) | (<i>3:32</i>)<br>
<b>2.</b> Blank Space (Taylor's Version) | (<i>3:51</i>)<br>
<b>3.</b> Style (Taylor's Version) | (<i>3:51</i>)<br>
<b>4. </b>Out Of The Woods (Taylor's Version) | (<i>3:55</i>)<br>
<b>5.</b> All You Had To Do Was Stay (Taylor's Version) | (<i>3:13</i>)<br>
<b>6.</b> Shake It Off (Taylor's Version) | (<i>3:39</i>)<br>
<b>7.</b> I Wish You Would (Taylor's Version) | (<i>3:27</i>)<br>
<b>8.</b> Bad Blood (Taylor's Version) | (<i>3:31</i>)<br>
<b>9.</b> Wildest Dreams (Taylor's Version) | (<i>3:40</i>)<br>
<b>10.</b> How You Get The Girl (Taylor's Version) | (<i>4:07</i>)<br>
<b>11.</b> This Love (Taylor's Version) | (<i>4:10</i>)<br>
<b>12. </b>I Know Places (Taylor's Version) | (<i>3:15</i>)<br>
<b>13.</b> Clean (Taylor's Version) | (<i>4:31</i>)<br>
<b>14.</b> Wonderland (Taylor's Version) | (<i>4:05</i>)<br>
<b>15.</b> You Are In Love (Taylor's Version) | (<i>4:27</i>)<br>
<b>16.</b> New Romantics (Taylor's Version) | (<i>3:50</i>)<br>
<b>17.</b> "Slut!" (Taylor's Version) [From The Vault] | (<i>3:00</i>)<br>
<b>18.</b> Say Don't Go (Taylor's Version) [From The Vault] | (<i>4:39</i>)<br>
<b>19.</b> Now That We Don't Talk (Taylor's Version) [From The Vault] | (<i>2:26</i>)<br>
<b>20.</b> Suburban Legends (Taylor's Version) [From The Vault] | (<i>2:51</i>)<br>
<b>21.</b> Is It Over Now? (Taylor's Version) [From The Vault] | (<i>3:49</i>)<br>
<b>22.</b> Sweeter Than Fiction (Taylor's Version) | (<i>3:59</i>)<br>
<br>
<b>Total Length: </b>01:21:48<br>
</span><br>
​</div>
<div class="ToggleTriggerAnchor bbCodeSpoilerContainer">
<button type="button" class="button bbCodeSpoilerButton ToggleTrigger Tooltip JsOnly" data-target="> .SpoilerTarget"><span>Spoiler: <span class="SpoilerTitle">MediaInfo</span></span></button>
<div class="SpoilerTarget bbCodeSpoilerText">
<div class="bbCodeBlock bbCodeCode">
<div class="type">Code:</div>
<pre>General
Complete name                            : C:\Users\bradl\Desktop\Taylor Swift - Taylor Swift Karaoke; 1989 (Taylor's Version) (2023) [24B-48kHz]\01. Welcome To New York (Taylor's Version).lrc
File size                                : 2.32 KiB

General
Complete name                            : C:\Users\bradl\Desktop\Taylor Swift - Taylor Swift Karaoke; 1989 (Taylor's Version) (2023) [24B-48kHz]\01. Welcome To New York (Taylor's Version).wav
Format                                   : Wave
Format settings                          : PcmWaveformat
File size                                : 38.1 MiB
Duration                                 : 3 min 32 s
Overall bit rate mode                    : Constant
Overall bit rate                         : 1 505 kb/s
Album                                    : Taylor Swift Karaoke: 1989 (Taylor's Version)
Album/Performer                          : Taylor Swift
Part/Position                            : 1
Track name                               : Welcome To New York (Taylor's Version)
Track name/Position                      : 1
Performer                                : Taylor Swift
Director                                 : Taylor Swift
Producer                                 : Ryan Tedder
Label                                    : Taylor Swift
Genre                                    : Pop
Recorded date                            : 2023-10-27
Original source form/Name                : Taylor Swift Karaoke: 1989 (Taylor's Version)
ISRC                                     : USUG12306672
Copyright                                : © 2023 Taylor Swift ℗ 2023 Taylor Swift
Cover                                    : Yes
Cover type                               : Cover (front)
Cover MIME                               : image/jpeg
Rating                                   : Clean
ITRK                                     : 1
totaltracks                              : 21
totaldiscs                               : 1
UPC                                      : 0602458615982
Piano                                    : Ryan Tedder
Recording Engineer                       : Ryan Tedder
Synthesizer                              : Ryan Tedder
Background Vocalist                      : Ryan Tedder
AssociatedPerformer                      : Ryan Tedder
StudioPersonnel                          : Ryan Tedder
ComposerLyricist                         : Ryan Tedder
Mastering Engineer                       : Ryan Smith
Mixer                                    : Serban Ghenea
Drum Programming                         : Noel Zancanella
Vocals                                   : Taylor Swift
 Engineer                                : Christopher Rowe
Mix Engineer                             : Bryce Bordone

Audio
Format                                   : PCM
Format settings                          : Little / Signed
Codec ID                                 : 1
Duration                                 : 3 min 32 s
Bit rate mode                            : Constant
Bit rate                                 : 1 411.2 kb/s
Channel(s)                               : 2 channels
Sampling rate                            : 44.1 kHz
Bit depth                                : 16 bits
Stream size                              : 35.8 MiB (94%)

General
Complete name                            : C:\Users\bradl\Desktop\Taylor Swift - Taylor Swift Karaoke; 1989 (Taylor's Version) (2023) [24B-48kHz]\02. Blank Space (Taylor's Version).lrc
File size                                : 3.43 KiB

General
Complete name                            : C:\Users\bradl\Desktop\Taylor Swift - Taylor Swift Karaoke; 1989 (Taylor's Version) (2023) [24B-48kHz]\02. Blank Space (Taylor's Version).wav
Format                                   : Wave
Format settings                          : PcmWaveformat
File size                                : 41.4 MiB
Duration                                 : 3 min 51 s
Overall bit rate mode                    : Constant
Overall bit rate                         : 1 497 kb/s
Album                                    : Taylor Swift Karaoke: 1989 (Taylor's Version)
Album/Performer                          : Taylor Swift
Part/Position                            : 1
Track name                               : Blank Space (Taylor's Version)
Track name/Position                      : 2
Performer                                : Taylor Swift
Director                                 : Taylor Swift
Producer                                 : Taylor Swift
Label                                    : Taylor Swift
Genre                                    : Pop
Recorded date                            : 2023-10-27
Original source form/Name                : Taylor Swift Karaoke: 1989 (Taylor's Version)
ISRC                                     : USUG12306673
Copyright                                : © 2023 Taylor Swift ℗ 2023 Taylor Swift
Cover                                    : Yes
Cover type                               : Cover (front)
Cover MIME                               : image/jpeg
Rating                                   : Clean
ITRK                                     : 2
totaltracks                              : 21
totaldiscs                               : 1
UPC                                      : 0602458615982
ComposerLyricist                         : Max Martin
Electric Guitar                          : Max Bernstein
Synthesizer                              : Max Bernstein
AssociatedPerformer                      : Max Bernstein
Mastering Engineer                       : Ryan Smith
StudioPersonnel                          : Ryan Smith
Mixer                                    : Serban Ghenea
Vocal Producer                           : Sam Holland
 Engineer                                : Christopher Rowe
Additional Engineer                      : Dan Burns
Synth Bass                               : Dan Burns
Drum Programming                         : Dan Burns
Vocals                                   : Taylor Swift
Background Vocalist                      : Taylor Swift
Drums                                    : Matt Billingslea
Acoustic Guitar                          : Mike Meadows
Bass                                     : Amos Heller
Editor                                   : Derek Garten
Engineer                                 : Derek Garten
Programming                              : Derek Garten
Mix Engineer                             : Bryce Bordone

Audio
Format                                   : PCM
Format settings                          : Little / Signed
Codec ID                                 : 1
Duration                                 : 3 min 51 s
Bit rate mode                            : Constant
Bit rate                                 : 1 411.2 kb/s
Channel(s)                               : 2 channels
Sampling rate                            : 44.1 kHz
Bit depth                                : 16 bits
Stream size                              : 39.0 MiB (94%)

General
Complete name                            : C:\Users\bradl\Desktop\Taylor Swift - Taylor Swift Karaoke; 1989 (Taylor's Version) (2023) [24B-48kHz]\03. Style (Taylor's Version).lrc
File size                                : 2.35 KiB

General
Complete name                            : C:\Users\bradl\Desktop\Taylor Swift - Taylor Swift Karaoke; 1989 (Taylor's Version) (2023) [24B-48kHz]\03. Style (Taylor's Version).wav
Format                                   : Wave
Format settings                          : PcmWaveformat
File size                                : 41.2 MiB
Duration                                 : 3 min 50 s
Overall bit rate mode                    : Constant
Overall bit rate                         : 1 498 kb/s
Album                                    : Taylor Swift Karaoke: 1989 (Taylor's Version)
Album/Performer                          : Taylor Swift
Part/Position                            : 1
Track name                               : Style (Taylor's Version)
Track name/Position                      : 3
Performer                                : Taylor Swift
Director                                 : Taylor Swift
Producer                                 : Taylor Swift
Label                                    : Taylor Swift
Genre                                    : Pop
Recorded date                            : 2023-10-27
Original source form/Name                : Taylor Swift Karaoke: 1989 (Taylor's Version)
ISRC                                     : USUG12306674
Copyright                                : © 2023 Taylor Swift ℗ 2023 Taylor Swift
Cover                                    : Yes
Cover type                               : Cover (front)
Cover MIME                               : image/jpeg
Rating                                   : Clean
ITRK                                     : 3
totaltracks                              : 21
totaldiscs                               : 1
UPC                                      : 0602458615982
ComposerLyricist                         : Max Martin
Acoustic Guitar                          : Max Bernstein
Electric Guitar                          : Max Bernstein
Synthesizer                              : Max Bernstein
AssociatedPerformer                      : Max Bernstein
Mastering Engineer                       : Ryan Smith
StudioPersonnel                          : Ryan Smith
Mixer                                    : Serban Ghenea
Additional Engineer                      : Dan Burns
Synth Bass                               : Dan Burns
Drum Programming                         : Dan Burns
Programming                              : Dan Burns
Vocals                                   : Taylor Swift
Background Vocalist                      : Taylor Swift
Drums                                    : Matt Billingslea
Vocal Engineer                           : Christopher Rowe
Bass                                     : Amos Heller
Editor                                   : Derek Garten
Engineer                                 : Derek Garten
Mix Engineer                             : Bryce Bordone

Audio
Format                                   : PCM
Format settings                          : Little / Signed
Codec ID                                 : 1
Duration                                 : 3 min 50 s
Bit rate mode                            : Constant
Bit rate                                 : 1 411.2 kb/s
Channel(s)                               : 2 channels
Sampling rate                            : 44.1 kHz
Bit depth                                : 16 bits
Stream size                              : 38.9 MiB (94%)

General
Complete name                            : C:\Users\bradl\Desktop\Taylor Swift - Taylor Swift Karaoke; 1989 (Taylor's Version) (2023) [24B-48kHz]\04. Out Of The Woods (Taylor's Version).lrc
File size                                : 3.73 KiB

General
Complete name                            : C:\Users\bradl\Desktop\Taylor Swift - Taylor Swift Karaoke; 1989 (Taylor's Version) (2023) [24B-48kHz]\04. Out Of The Woods (Taylor's Version).wav
Format                                   : Wave
Format settings                          : PcmWaveformat
File size                                : 42.1 MiB
Duration                                 : 3 min 55 s
Overall bit rate mode                    : Constant
Overall bit rate                         : 1 496 kb/s
Album                                    : Taylor Swift Karaoke: 1989 (Taylor's Version)
Album/Performer                          : Taylor Swift
Part/Position                            : 1
Track name                               : Out Of The Woods (Taylor's Version)
Track name/Position                      : 4
Performer                                : Taylor Swift
Director                                 : Taylor Swift
Producer                                 : Taylor Swift
Label                                    : Taylor Swift
Genre                                    : Pop
Recorded date                            : 2023-10-27
Original source form/Name                : Taylor Swift Karaoke: 1989 (Taylor's Version)
ISRC                                     : USUG12306675
Copyright                                : © 2023 Taylor Swift ℗ 2023 Taylor Swift
Cover                                    : Yes
Cover type                               : Cover (front)
Cover MIME                               : image/jpeg
Rating                                   : Clean
ITRK                                     : 4
totaltracks                              : 21
totaldiscs                               : 1
UPC                                      : 0602458615982
Mastering Engineer                       : Ryan Smith
StudioPersonnel                          : Ryan Smith
Mixer                                    : Serban Ghenea
Recording Engineer                       : David Hart
Asst. Recording Engineer                 : Jack Manning
Vocals                                   : Taylor Swift
AssociatedPerformer                      : Taylor Swift
ComposerLyricist                         : Taylor Swift
Drums                                    : Jack Antonoff
Acoustic Guitar                          : Jack Antonoff
Electric Guitar                          : Jack Antonoff
Bass                                     : Jack Antonoff
Synthesizer                              : Jack Antonoff
Programming                              : Jack Antonoff
Background Vocalist                      : Jack Antonoff
Percussion                               : Sean Hutchinson
Mix Engineer                             : Bryce Bordone

Audio
Format                                   : PCM
Format settings                          : Little / Signed
Codec ID                                 : 1
Duration                                 : 3 min 55 s
Bit rate mode                            : Constant
Bit rate                                 : 1 411.2 kb/s
Channel(s)                               : 2 channels
Sampling rate                            : 44.1 kHz
Bit depth                                : 16 bits
Stream size                              : 39.7 MiB (94%)

General
Complete name                            : C:\Users\bradl\Desktop\Taylor Swift - Taylor Swift Karaoke; 1989 (Taylor's Version) (2023) [24B-48kHz]\05. All You Had To Do Was Stay (Taylor's Version).lrc
File size                                : 2.78 KiB

General
Complete name                            : C:\Users\bradl\Desktop\Taylor Swift - Taylor Swift Karaoke; 1989 (Taylor's Version) (2023) [24B-48kHz]\05. All You Had To Do Was Stay (Taylor's Version).wav
Format                                   : Wave
Format settings                          : PcmWaveformat
File size                                : 34.9 MiB
Duration                                 : 3 min 13 s
Overall bit rate mode                    : Constant
Overall bit rate                         : 1 515 kb/s
Album                                    : Taylor Swift Karaoke: 1989 (Taylor's Version)
Album/Performer                          : Taylor Swift
Part/Position                            : 1
Track name                               : All You Had To Do Was Stay (Taylor's Version)
Track name/Position                      : 5
Performer                                : Taylor Swift
Director                                 : Taylor Swift
Producer                                 : Taylor Swift
Label                                    : Taylor Swift
Genre                                    : Pop
Recorded date                            : 2023-10-27
Original source form/Name                : Taylor Swift Karaoke: 1989 (Taylor's Version)
ISRC                                     : USUG12306676
Copyright                                : © 2023 Taylor Swift ℗ 2023 Taylor Swift
Cover                                    : Yes
Cover type                               : Cover (front)
Cover MIME                               : image/jpeg
Rating                                   : Clean
ITRK                                     : 5
totaltracks                              : 21
totaldiscs                               : 1
UPC                                      : 0602458615982
ComposerLyricist                         : Max Martin
Electric Guitar                          : Max Bernstein
AssociatedPerformer                      : Max Bernstein
Mastering Engineer                       : Ryan Smith
StudioPersonnel                          : Ryan Smith
Mixer                                    : Serban Ghenea
Additional Engineer                      : Dan Burns
Synth Bass                               : Dan Burns
Synthesizer                              : Dan Burns
Drum Programming                         : Dan Burns
Vocals                                   : Taylor Swift
Background Vocalist                      : Taylor Swift
Drums                                    : Matt Billingslea
Vocal Engineer                           : Christopher Rowe
Acoustic Guitar                          : Mike Meadows
Bass                                     : Amos Heller
Editor                                   : Derek Garten
Engineer                                 : Derek Garten
Programming                              : Derek Garten
Mix Engineer                             : Bryce Bordone

Audio
Format                                   : PCM
Format settings                          : Little / Signed
Codec ID                                 : 1
Duration                                 : 3 min 13 s
Bit rate mode                            : Constant
Bit rate                                 : 1 411.2 kb/s
Channel(s)                               : 2 channels
Sampling rate                            : 44.1 kHz
Bit depth                                : 16 bits
Stream size                              : 32.5 MiB (93%)

General
Complete name                            : C:\Users\bradl\Desktop\Taylor Swift - Taylor Swift Karaoke; 1989 (Taylor's Version) (2023) [24B-48kHz]\06. Shake It Off (Taylor's Version).lrc
File size                                : 3.46 KiB

General
Complete name                            : C:\Users\bradl\Desktop\Taylor Swift - Taylor Swift Karaoke; 1989 (Taylor's Version) (2023) [24B-48kHz]\06. Shake It Off (Taylor's Version).wav
Format                                   : Wave
Format settings                          : PcmWaveformat
File size                                : 39.3 MiB
Duration                                 : 3 min 39 s
Overall bit rate mode                    : Constant
Overall bit rate                         : 1 502 kb/s
Album                                    : Taylor Swift Karaoke: 1989 (Taylor's Version)
Album/Performer                          : Taylor Swift
Part/Position                            : 1
Track name                               : Shake It Off (Taylor's Version)
Track name/Position                      : 6
Performer                                : Taylor Swift
Director                                 : Taylor Swift
Producer                                 : Taylor Swift
Label                                    : Taylor Swift
Genre                                    : Pop
Recorded date                            : 2023-10-27
Original source form/Name                : Taylor Swift Karaoke: 1989 (Taylor's Version)
ISRC                                     : USUG12306677
Copyright                                : © 2023 Taylor Swift ℗ 2023 Taylor Swift
Cover                                    : Yes
Cover type                               : Cover (front)
Cover MIME                               : image/jpeg
Rating                                   : Clean
ITRK                                     : 6
totaltracks                              : 21
totaldiscs                               : 1
UPC                                      : 0602458615982
ComposerLyricist                         : Max Martin
Synthesizer                              : Max Bernstein
AssociatedPerformer                      : Max Bernstein
Trumpet                                  : Magnus Johansson
Mastering Engineer                       : Ryan Smith
StudioPersonnel                          : Ryan Smith
Mixer                                    : Serban Ghenea
Vocal Producer                           : Sam Holland
 Engineer                                : Christopher Rowe
Clapping                                 : ROBERT ALLEN
Background Vocalist                      : ROBERT ALLEN
Editor                                   : Lowell Reynolds
Engineer                                 : Lowell Reynolds
Programming                              : Lowell Reynolds
Drums                                    : Johan Schuster
Sound Effects                            : Johan Schuster
Alto Saxophone                           : Wojtek Goral
Baritone Saxophone                       : Wojtek Goral
Recording Engineer                       : Mattias Bylund
Unknown                                  : Mattias Bylund
Other                                    : Mattias Bylund
Vocals                                   : Taylor Swift
Percussion                               : Matt Billingslea
Tenor Saxophone                          : Tomas Jonsson
Electric Guitar                          : Paul Sidoti
Bass                                     : Amos Heller
Trombone                                 : Peter Noos Johansson
Tuba                                     : Peter Noos Johansson
Mix Engineer                             : Bryce Bordone

Audio
Format                                   : PCM
Format settings                          : Little / Signed
Codec ID                                 : 1
Duration                                 : 3 min 39 s
Bit rate mode                            : Constant
Bit rate                                 : 1 411.2 kb/s
Channel(s)                               : 2 channels
Sampling rate                            : 44.1 kHz
Bit depth                                : 16 bits
Stream size                              : 36.9 MiB (94%)

General
Complete name                            : C:\Users\bradl\Desktop\Taylor Swift - Taylor Swift Karaoke; 1989 (Taylor's Version) (2023) [24B-48kHz]\07. I Wish You Would (Taylor's Version).lrc
File size                                : 3.55 KiB

General
Complete name                            : C:\Users\bradl\Desktop\Taylor Swift - Taylor Swift Karaoke; 1989 (Taylor's Version) (2023) [24B-48kHz]\07. I Wish You Would (Taylor's Version).wav
Format                                   : Wave
Format settings                          : PcmWaveformat
File size                                : 37.3 MiB
Duration                                 : 3 min 27 s
Overall bit rate mode                    : Constant
Overall bit rate                         : 1 507 kb/s
Album                                    : Taylor Swift Karaoke: 1989 (Taylor's Version)
Album/Performer                          : Taylor Swift
Part/Position                            : 1
Track name                               : I Wish You Would (Taylor's Version)
Track name/Position                      : 7
Performer                                : Taylor Swift
Director                                 : Taylor Swift
Producer                                 : Taylor Swift
Label                                    : Taylor Swift
Genre                                    : Pop
Recorded date                            : 2023-10-27
Original source form/Name                : Taylor Swift Karaoke: 1989 (Taylor's Version)
ISRC                                     : USUG12306678
Copyright                                : © 2023 Taylor Swift ℗ 2023 Taylor Swift
Cover                                    : Yes
Cover type                               : Cover (front)
Cover MIME                               : image/jpeg
Rating                                   : Clean
ITRK                                     : 7
totaltracks                              : 21
totaldiscs                               : 1
UPC                                      : 0602458615982
Mastering Engineer                       : Ryan Smith
StudioPersonnel                          : Ryan Smith
Mixer                                    : Serban Ghenea
Recording Engineer                       : David Hart
Asst. Recording Engineer                 : Jack Manning
Vocals                                   : Taylor Swift
AssociatedPerformer                      : Taylor Swift
ComposerLyricist                         : Taylor Swift
Drums                                    : Jack Antonoff
Guitar                                   : Jack Antonoff
Bass                                     : Jack Antonoff
Synthesizer                              : Jack Antonoff
Programming                              : Jack Antonoff
Percussion                               : Sean Hutchinson
Background Vocalist                      : Mikey Freedom Hart
Mix Engineer                             : Bryce Bordone

Audio
Format                                   : PCM
Format settings                          : Little / Signed
Codec ID                                 : 1
Duration                                 : 3 min 27 s
Bit rate mode                            : Constant
Bit rate                                 : 1 411.2 kb/s
Channel(s)                               : 2 channels
Sampling rate                            : 44.1 kHz
Bit depth                                : 16 bits
Stream size                              : 34.9 MiB (94%)

General
Complete name                            : C:\Users\bradl\Desktop\Taylor Swift - Taylor Swift Karaoke; 1989 (Taylor's Version) (2023) [24B-48kHz]\08. Bad Blood (Taylor's Version).lrc
File size                                : 2.99 KiB

General
Complete name                            : C:\Users\bradl\Desktop\Taylor Swift - Taylor Swift Karaoke; 1989 (Taylor's Version) (2023) [24B-48kHz]\08. Bad Blood (Taylor's Version).wav
Format                                   : Wave
Format settings                          : PcmWaveformat
File size                                : 37.9 MiB
Duration                                 : 3 min 31 s
Overall bit rate mode                    : Constant
Overall bit rate                         : 1 506 kb/s
Album                                    : Taylor Swift Karaoke: 1989 (Taylor's Version)
Album/Performer                          : Taylor Swift
Part/Position                            : 1
Track name                               : Bad Blood (Taylor's Version)
Track name/Position                      : 8
Performer                                : Taylor Swift
Director                                 : Taylor Swift
Producer                                 : Taylor Swift
Label                                    : Taylor Swift
Genre                                    : Pop
Recorded date                            : 2023-10-27
Original source form/Name                : Taylor Swift Karaoke: 1989 (Taylor's Version)
ISRC                                     : USUG12306679
Copyright                                : © 2023 Taylor Swift ℗ 2023 Taylor Swift
Cover                                    : Yes
Cover type                               : Cover (front)
Cover MIME                               : image/jpeg
Rating                                   : Clean
ITRK                                     : 8
totaltracks                              : 21
totaldiscs                               : 1
UPC                                      : 0602458615982
ComposerLyricist                         : Max Martin
Synthesizer                              : Max Bernstein
AssociatedPerformer                      : Max Bernstein
Mastering Engineer                       : Ryan Smith
StudioPersonnel                          : Ryan Smith
Mixer                                    : Serban Ghenea
Additional Engineer                      : Dan Burns
Synth Bass                               : Dan Burns
Drum Programming                         : Dan Burns
Vocals                                   : Taylor Swift
Background Vocalist                      : Taylor Swift
Drums                                    : Matt Billingslea
Vocal Engineer                           : Christopher Rowe
Acoustic Guitar                          : Mike Meadows
Bass                                     : Amos Heller
Editor                                   : Derek Garten
Engineer                                 : Derek Garten
Programming                              : Derek Garten
Mix Engineer                             : Bryce Bordone

Audio
Format                                   : PCM
Format settings                          : Little / Signed
Codec ID                                 : 1
Duration                                 : 3 min 31 s
Bit rate mode                            : Constant
Bit rate                                 : 1 411.2 kb/s
Channel(s)                               : 2 channels
Sampling rate                            : 44.1 kHz
Bit depth                                : 16 bits
Stream size                              : 35.5 MiB (94%)

General
Complete name                            : C:\Users\bradl\Desktop\Taylor Swift - Taylor Swift Karaoke; 1989 (Taylor's Version) (2023) [24B-48kHz]\09. Wildest Dreams (Taylor's Version).lrc
File size                                : 2.40 KiB

General
Complete name                            : C:\Users\bradl\Desktop\Taylor Swift - Taylor Swift Karaoke; 1989 (Taylor's Version) (2023) [24B-48kHz]\09. Wildest Dreams (Taylor's Version).wav
Format                                   : Wave
Format settings                          : PcmWaveformat
File size                                : 39.5 MiB
Duration                                 : 3 min 40 s
Overall bit rate mode                    : Constant
Overall bit rate                         : 1 502 kb/s
Album                                    : Taylor Swift Karaoke: 1989 (Taylor's Version)
Album/Performer                          : Taylor Swift
Part/Position                            : 1
Track name                               : Wildest Dreams (Taylor's Version)
Track name/Position                      : 9
Performer                                : Taylor Swift
Director                                 : Taylor Swift
Producer                                 : Shellback
Label                                    : Taylor Swift
Genre                                    : Pop
Recorded date                            : 2023-10-27
Original source form/Name                : Taylor Swift Karaoke: 1989 (Taylor's Version)
ISRC                                     : USUG12103658
Copyright                                : © 2023 Taylor Swift ℗ 2023 Taylor Swift
Cover                                    : Yes
Cover type                               : Cover (front)
Cover MIME                               : image/jpeg
Rating                                   : Clean
ITRK                                     : 9
totaltracks                              : 21
totaldiscs                               : 1
UPC                                      : 0602458615982
ComposerLyricist                         : Max Martin
Guitar                                   : Max Bernstein
Synthesizer                              : Max Bernstein
 Programming                             : Max Bernstein
AssociatedPerformer                      : Max Bernstein
Engineer                                 : John Hanes
StudioPersonnel                          : John Hanes
Mixer                                    : Serban Ghenea
String Arranger                          : Mattias Bylund
Editor                                   : Mattias Bylund
Recording Engineer                       : Mattias Bylund
Vocals                                   : Taylor Swift
Drums                                    : Matt Billingslea
Percussion                               : Matt Billingslea
Vocal Engineer                           : Christopher Rowe
Violin                                   : Mattias Johansson
Cello                                    : David Bukovinszky
Mastering Engineer                       : Randy Merrill
Bass                                     : Amos Heller

Audio
Format                                   : PCM
Format settings                          : Little / Signed
Codec ID                                 : 1
Duration                                 : 3 min 40 s
Bit rate mode                            : Constant
Bit rate                                 : 1 411.2 kb/s
Channel(s)                               : 2 channels
Sampling rate                            : 44.1 kHz
Bit depth                                : 16 bits
Stream size                              : 37.1 MiB (94%)

General
Complete name                            : C:\Users\bradl\Desktop\Taylor Swift - Taylor Swift Karaoke; 1989 (Taylor's Version) (2023) [24B-48kHz]\10. How You Get The Girl (Taylor's Version).lrc
File size                                : 2.54 KiB

General
Complete name                            : C:\Users\bradl\Desktop\Taylor Swift - Taylor Swift Karaoke; 1989 (Taylor's Version) (2023) [24B-48kHz]\10. How You Get The Girl (Taylor's Version).wav
Format                                   : Wave
Format settings                          : PcmWaveformat
File size                                : 44.0 MiB
Duration                                 : 4 min 7 s
Overall bit rate mode                    : Constant
Overall bit rate                         : 1 492 kb/s
Album                                    : Taylor Swift Karaoke: 1989 (Taylor's Version)
Album/Performer                          : Taylor Swift
Part/Position                            : 1
Track name                               : How You Get The Girl (Taylor's Version)
Track name/Position                      : 10
Performer                                : Taylor Swift
Director                                 : Taylor Swift
Producer                                 : Taylor Swift
Label                                    : Taylor Swift
Genre                                    : Pop
Recorded date                            : 2023-10-27
Original source form/Name                : Taylor Swift Karaoke: 1989 (Taylor's Version)
ISRC                                     : USUG12306681
Copyright                                : © 2023 Taylor Swift ℗ 2023 Taylor Swift
Cover                                    : Yes
Cover type                               : Cover (front)
Cover MIME                               : image/jpeg
Rating                                   : Clean
ITRK                                     : 10
totaltracks                              : 21
totaldiscs                               : 1
UPC                                      : 0602458615982
ComposerLyricist                         : Max Martin
Electric Guitar                          : Max Bernstein
Synthesizer                              : Max Bernstein
AssociatedPerformer                      : Max Bernstein
Mastering Engineer                       : Ryan Smith
StudioPersonnel                          : Ryan Smith
Mixer                                    : Serban Ghenea
Additional Engineer                      : Dan Burns
Synth Bass                               : Dan Burns
Drum Programming                         : Dan Burns
Vocals                                   : Taylor Swift
Background Vocalist                      : Taylor Swift
Drums                                    : Matt Billingslea
Vocal Engineer                           : Christopher Rowe
Acoustic Guitar                          : Mike Meadows
Bass                                     : Amos Heller
Editor                                   : Derek Garten
Engineer                                 : Derek Garten
Programming                              : Derek Garten
Mix Engineer                             : Bryce Bordone

Audio
Format                                   : PCM
Format settings                          : Little / Signed
Codec ID                                 : 1
Duration                                 : 4 min 7 s
Bit rate mode                            : Constant
Bit rate                                 : 1 411.2 kb/s
Channel(s)                               : 2 channels
Sampling rate                            : 44.1 kHz
Bit depth                                : 16 bits
Stream size                              : 41.6 MiB (95%)

General
Complete name                            : C:\Users\bradl\Desktop\Taylor Swift - Taylor Swift Karaoke; 1989 (Taylor's Version) (2023) [24B-48kHz]\11. This Love (Taylor’s Version).lrc
File size                                : 2.26 KiB

General
Complete name                            : C:\Users\bradl\Desktop\Taylor Swift - Taylor Swift Karaoke; 1989 (Taylor's Version) (2023) [24B-48kHz]\11. This Love (Taylor’s Version).wav
Format                                   : Wave
Format settings                          : PcmWaveformat
File size                                : 44.5 MiB
Duration                                 : 4 min 10 s
Overall bit rate mode                    : Constant
Overall bit rate                         : 1 491 kb/s
Album                                    : Taylor Swift Karaoke: 1989 (Taylor's Version)
Album/Performer                          : Taylor Swift
Part/Position                            : 1
Track name                               : This Love (Taylor’s Version)
Track name/Position                      : 11
Performer                                : Taylor Swift
Director                                 : Taylor Swift
Producer                                 : Taylor Swift
Label                                    : Taylor Swift
Genre                                    : Pop
Recorded date                            : 2023-10-27
Original source form/Name                : Taylor Swift Karaoke: 1989 (Taylor's Version)
ISRC                                     : USUG12200219
Copyright                                : © 2023 Taylor Swift ℗ 2023 Taylor Swift
Cover                                    : Yes
Cover type                               : Cover (front)
Cover MIME                               : image/jpeg
Rating                                   : Clean
ITRK                                     : 11
totaltracks                              : 21
totaldiscs                               : 1
UPC                                      : 0602458615982
Synthesizer                              : Max Bernstein
AssociatedPerformer                      : Max Bernstein
Recording Engineer                       : David Payne
StudioPersonnel                          : David Payne
Mixer                                    : Serban Ghenea
Editor                                   : Lowell Reynolds
Asst. Recording Engineer                 : Lowell Reynolds
Additional Engineer                      : Dan Burns
Vocals                                   : Taylor Swift
Background Vocalist                      : Taylor Swift
ComposerLyricist                         : Taylor Swift
Drums                                    : Matt Billingslea
Vocal Engineer                           : Christopher Rowe
Mastering Engineer                       : Randy Merrill
Electric Guitar                          : Paul Sidoti
Acoustic Guitar                          : Mike Meadows
Bass Guitar                              : Amos Heller
Engineer                                 : Derek Garten

Audio
Format                                   : PCM
Format settings                          : Little / Signed
Codec ID                                 : 1
Duration                                 : 4 min 10 s
Bit rate mode                            : Constant
Bit rate                                 : 1 411.2 kb/s
Channel(s)                               : 2 channels
Sampling rate                            : 44.1 kHz
Bit depth                                : 16 bits
Stream size                              : 42.1 MiB (95%)

General
Complete name                            : C:\Users\bradl\Desktop\Taylor Swift - Taylor Swift Karaoke; 1989 (Taylor's Version) (2023) [24B-48kHz]\12. I Know Places (Taylor's Version).lrc
File size                                : 2.08 KiB

General
Complete name                            : C:\Users\bradl\Desktop\Taylor Swift - Taylor Swift Karaoke; 1989 (Taylor's Version) (2023) [24B-48kHz]\12. I Know Places (Taylor's Version).wav
Format                                   : Wave
Format settings                          : PcmWaveformat
File size                                : 35.3 MiB
Duration                                 : 3 min 15 s
Overall bit rate mode                    : Constant
Overall bit rate                         : 1 513 kb/s
Album                                    : Taylor Swift Karaoke: 1989 (Taylor's Version)
Album/Performer                          : Taylor Swift
Part/Position                            : 1
Track name                               : I Know Places (Taylor's Version)
Track name/Position                      : 12
Performer                                : Taylor Swift
Director                                 : Taylor Swift
Producer                                 : Ryan Tedder
Label                                    : Taylor Swift
Genre                                    : Pop
Recorded date                            : 2023-10-27
Original source form/Name                : Taylor Swift Karaoke: 1989 (Taylor's Version)
ISRC                                     : USUG12306682
Copyright                                : © 2023 Taylor Swift ℗ 2023 Taylor Swift
Cover                                    : Yes
Cover type                               : Cover (front)
Cover MIME                               : image/jpeg
Rating                                   : Clean
ITRK                                     : 12
totaltracks                              : 21
totaldiscs                               : 1
UPC                                      : 0602458615982
Acoustic Guitar                          : Ryan Tedder
Electric Guitar                          : Ryan Tedder
Piano                                    : Ryan Tedder
Recording Engineer                       : Ryan Tedder
Synthesizer                              : Ryan Tedder
Drum Programming                         : Ryan Tedder
Programming                              : Ryan Tedder
Background Vocalist                      : Ryan Tedder
AssociatedPerformer                      : Ryan Tedder
StudioPersonnel                          : Ryan Tedder
ComposerLyricist                         : Ryan Tedder
Mastering Engineer                       : Ryan Smith
Mixer                                    : Serban Ghenea
Bass                                     : Noel Zancanella
Vocals                                   : Taylor Swift
 Engineer                                : Christopher Rowe
Mix Engineer                             : Bryce Bordone

Audio
Format                                   : PCM
Format settings                          : Little / Signed
Codec ID                                 : 1
Duration                                 : 3 min 15 s
Bit rate mode                            : Constant
Bit rate                                 : 1 411.2 kb/s
Channel(s)                               : 2 channels
Sampling rate                            : 44.1 kHz
Bit depth                                : 16 bits
Stream size                              : 32.9 MiB (93%)

General
Complete name                            : C:\Users\bradl\Desktop\Taylor Swift - Taylor Swift Karaoke; 1989 (Taylor's Version) (2023) [24B-48kHz]\13. Clean (Taylor's Version).lrc
File size                                : 2.24 KiB

General
Complete name                            : C:\Users\bradl\Desktop\Taylor Swift - Taylor Swift Karaoke; 1989 (Taylor's Version) (2023) [24B-48kHz]\13. Clean (Taylor's Version).wav
Format                                   : Wave
Format settings                          : PcmWaveformat
File size                                : 48.0 MiB
Duration                                 : 4 min 30 s
Overall bit rate mode                    : Constant
Overall bit rate                         : 1 485 kb/s
Album                                    : Taylor Swift Karaoke: 1989 (Taylor's Version)
Album/Performer                          : Taylor Swift
Part/Position                            : 1
Track name                               : Clean (Taylor's Version)
Track name/Position                      : 13
Performer                                : Taylor Swift
Director                                 : Taylor Swift
Producer                                 : Imogen Heap
Label                                    : Taylor Swift
Genre                                    : Pop
Recorded date                            : 2023-10-27
Original source form/Name                : Taylor Swift Karaoke: 1989 (Taylor's Version)
ISRC                                     : USUG12306683
Copyright                                : © 2023 Taylor Swift ℗ 2023 Taylor Swift
Cover                                    : Yes
Cover type                               : Cover (front)
Cover MIME                               : image/jpeg
Rating                                   : Clean
ITRK                                     : 13
totaltracks                              : 21
totaldiscs                               : 1
UPC                                      : 0602458615982
Mastering Engineer                       : Ryan Smith
StudioPersonnel                          : Ryan Smith
Mixer                                    : Serban Ghenea
Drums                                    : Imogen Heap
Keyboards                                : Imogen Heap
Percussion                               : Imogen Heap
Piano                                    : Imogen Heap
Vibraphone                               : Imogen Heap
Recording Engineer                       : Imogen Heap
Kalimba                                  : Imogen Heap
Programming                              : Imogen Heap
Background Vocalist                      : Imogen Heap
AssociatedPerformer                      : Imogen Heap
ComposerLyricist                         : Imogen Heap
Vocals                                   : Taylor Swift
 Engineer                                : Christopher Rowe
Mix Engineer                             : Bryce Bordone

Audio
Format                                   : PCM
Format settings                          : Little / Signed
Codec ID                                 : 1
Duration                                 : 4 min 30 s
Bit rate mode                            : Constant
Bit rate                                 : 1 411.2 kb/s
Channel(s)                               : 2 channels
Sampling rate                            : 44.1 kHz
Bit depth                                : 16 bits
Stream size                              : 45.6 MiB (95%)

General
Complete name                            : C:\Users\bradl\Desktop\Taylor Swift - Taylor Swift Karaoke; 1989 (Taylor's Version) (2023) [24B-48kHz]\14. Wonderland (Taylor's Version).lrc
File size                                : 2.92 KiB

General
Complete name                            : C:\Users\bradl\Desktop\Taylor Swift - Taylor Swift Karaoke; 1989 (Taylor's Version) (2023) [24B-48kHz]\14. Wonderland (Taylor's Version).wav
Format                                   : Wave
Format settings                          : PcmWaveformat
File size                                : 43.7 MiB
Duration                                 : 4 min 5 s
Overall bit rate mode                    : Constant
Overall bit rate                         : 1 493 kb/s
Album                                    : Taylor Swift Karaoke: 1989 (Taylor's Version)
Album/Performer                          : Taylor Swift
Part/Position                            : 1
Track name                               : Wonderland (Taylor's Version)
Track name/Position                      : 14
Performer                                : Taylor Swift
Director                                 : Taylor Swift
Producer                                 : Taylor Swift
Label                                    : Taylor Swift
Genre                                    : Pop
Recorded date                            : 2023-10-27
Original source form/Name                : Taylor Swift Karaoke: 1989 (Taylor's Version)
ISRC                                     : USUG12306684
Copyright                                : © 2023 Taylor Swift ℗ 2023 Taylor Swift
Cover                                    : Yes
Cover type                               : Cover (front)
Cover MIME                               : image/jpeg
Rating                                   : Clean
ITRK                                     : 14
totaltracks                              : 21
totaldiscs                               : 1
UPC                                      : 0602458615982
ComposerLyricist                         : Max Martin
Acoustic Guitar                          : Max Bernstein
Electric Guitar                          : Max Bernstein
Synthesizer                              : Max Bernstein
AssociatedPerformer                      : Max Bernstein
Mastering Engineer                       : Ryan Smith
StudioPersonnel                          : Ryan Smith
Mixer                                    : Serban Ghenea
Additional Engineer                      : Dan Burns
Synth Bass                               : Dan Burns
Drum Programming                         : Dan Burns
Vocals                                   : Taylor Swift
Background Vocalist                      : Taylor Swift
Drums                                    : Matt Billingslea
Vocal Engineer                           : Christopher Rowe
Bass                                     : Amos Heller
Editor                                   : Derek Garten
Engineer                                 : Derek Garten
Programming                              : Derek Garten
Mix Engineer                             : Bryce Bordone

Audio
Format                                   : PCM
Format settings                          : Little / Signed
Codec ID                                 : 1
Duration                                 : 4 min 5 s
Bit rate mode                            : Constant
Bit rate                                 : 1 411.2 kb/s
Channel(s)                               : 2 channels
Sampling rate                            : 44.1 kHz
Bit depth                                : 16 bits
Stream size                              : 41.3 MiB (95%)

General
Complete name                            : C:\Users\bradl\Desktop\Taylor Swift - Taylor Swift Karaoke; 1989 (Taylor's Version) (2023) [24B-48kHz]\15. You Are In Love (Taylor's Version).lrc
File size                                : 2.76 KiB

General
Complete name                            : C:\Users\bradl\Desktop\Taylor Swift - Taylor Swift Karaoke; 1989 (Taylor's Version) (2023) [24B-48kHz]\15. You Are In Love (Taylor's Version).wav
Format                                   : Wave
Format settings                          : PcmWaveformat
File size                                : 47.4 MiB
Duration                                 : 4 min 27 s
Overall bit rate mode                    : Constant
Overall bit rate                         : 1 486 kb/s
Album                                    : Taylor Swift Karaoke: 1989 (Taylor's Version)
Album/Performer                          : Taylor Swift
Part/Position                            : 1
Track name                               : You Are In Love (Taylor's Version)
Track name/Position                      : 15
Performer                                : Taylor Swift
Director                                 : Taylor Swift
Producer                                 : Taylor Swift
Label                                    : Taylor Swift
Genre                                    : Pop
Recorded date                            : 2023-10-27
Original source form/Name                : Taylor Swift Karaoke: 1989 (Taylor's Version)
ISRC                                     : USUG12306685
Copyright                                : © 2023 Taylor Swift ℗ 2023 Taylor Swift
Cover                                    : Yes
Cover type                               : Cover (front)
Cover MIME                               : image/jpeg
Rating                                   : Clean
ITRK                                     : 15
totaltracks                              : 21
totaldiscs                               : 1
UPC                                      : 0602458615982
Mastering Engineer                       : Ryan Smith
StudioPersonnel                          : Ryan Smith
Mixer                                    : Serban Ghenea
Recording Engineer                       : David Hart
Asst. Recording Engineer                 : Jack Manning
Vocals                                   : Taylor Swift
AssociatedPerformer                      : Taylor Swift
ComposerLyricist                         : Taylor Swift
Drums                                    : Jack Antonoff
Guitar                                   : Jack Antonoff
Bass                                     : Jack Antonoff
Synthesizer                              : Jack Antonoff
Programming                              : Jack Antonoff
Percussion                               : Sean Hutchinson
Acoustic Guitar                          : Mikey Freedom Hart
Electric Guitar                          : Mikey Freedom Hart
Mix Engineer                             : Bryce Bordone

Audio
Format                                   : PCM
Format settings                          : Little / Signed
Codec ID                                 : 1
Duration                                 : 4 min 27 s
Bit rate mode                            : Constant
Bit rate                                 : 1 411.2 kb/s
Channel(s)                               : 2 channels
Sampling rate                            : 44.1 kHz
Bit depth                                : 16 bits
Stream size                              : 45.0 MiB (95%)

General
Complete name                            : C:\Users\bradl\Desktop\Taylor Swift - Taylor Swift Karaoke; 1989 (Taylor's Version) (2023) [24B-48kHz]\16. New Romantics (Taylor's Version).lrc
File size                                : 2.88 KiB

General
Complete name                            : C:\Users\bradl\Desktop\Taylor Swift - Taylor Swift Karaoke; 1989 (Taylor's Version) (2023) [24B-48kHz]\16. New Romantics (Taylor's Version).wav
Format                                   : Wave
Format settings                          : PcmWaveformat
File size                                : 41.1 MiB
Duration                                 : 3 min 50 s
Overall bit rate mode                    : Constant
Overall bit rate                         : 1 498 kb/s
Album                                    : Taylor Swift Karaoke: 1989 (Taylor's Version)
Album/Performer                          : Taylor Swift
Part/Position                            : 1
Track name                               : New Romantics (Taylor's Version)
Track name/Position                      : 16
Performer                                : Taylor Swift
Director                                 : Taylor Swift
Producer                                 : Taylor Swift
Label                                    : Taylor Swift
Genre                                    : Pop
Recorded date                            : 2023-10-27
Original source form/Name                : Taylor Swift Karaoke: 1989 (Taylor's Version)
ISRC                                     : USUG12306686
Copyright                                : © 2023 Taylor Swift ℗ 2023 Taylor Swift
Cover                                    : Yes
Cover type                               : Cover (front)
Cover MIME                               : image/jpeg
Rating                                   : Clean
ITRK                                     : 16
totaltracks                              : 21
totaldiscs                               : 1
UPC                                      : 0602458615982
ComposerLyricist                         : Max Martin
Acoustic Guitar                          : Max Bernstein
Electric Guitar                          : Max Bernstein
Synthesizer                              : Max Bernstein
AssociatedPerformer                      : Max Bernstein
Mastering Engineer                       : Ryan Smith
StudioPersonnel                          : Ryan Smith
Mixer                                    : Serban Ghenea
Additional Engineer                      : Dan Burns
Synth Bass                               : Dan Burns
Drum Programming                         : Dan Burns
Vocals                                   : Taylor Swift
Background Vocalist                      : Taylor Swift
Drums                                    : Matt Billingslea
Vocal Engineer                           : Christopher Rowe
Bass                                     : Amos Heller
Editor                                   : Derek Garten
Engineer                                 : Derek Garten
Programming                              : Derek Garten
Mix Engineer                             : Bryce Bordone

Audio
Format                                   : PCM
Format settings                          : Little / Signed
Codec ID                                 : 1
Duration                                 : 3 min 50 s
Bit rate mode                            : Constant
Bit rate                                 : 1 411.2 kb/s
Channel(s)                               : 2 channels
Sampling rate                            : 44.1 kHz
Bit depth                                : 16 bits
Stream size                              : 38.7 MiB (94%)

General
Complete name                            : C:\Users\bradl\Desktop\Taylor Swift - Taylor Swift Karaoke; 1989 (Taylor's Version) (2023) [24B-48kHz]\17. Slut! (Taylor's Version) (From The Vault).lrc
File size                                : 2.12 KiB

General
Complete name                            : C:\Users\bradl\Desktop\Taylor Swift - Taylor Swift Karaoke; 1989 (Taylor's Version) (2023) [24B-48kHz]\17. Slut! (Taylor's Version) (From The Vault).wav
Format                                   : Wave
Format settings                          : PcmWaveformat
File size                                : 32.7 MiB
Duration                                 : 3 min 0 s
Overall bit rate mode                    : Constant
Overall bit rate                         : 1 522 kb/s
Album                                    : Taylor Swift Karaoke: 1989 (Taylor's Version)
Album/Performer                          : Taylor Swift
Part/Position                            : 1
Track name                               : "Slut!" (Taylor's Version) (From The Vault)
Track name/Position                      : 17
Performer                                : Taylor Swift
Director                                 : Taylor Swift
Producer                                 : Patrik Berger
Label                                    : Taylor Swift
Genre                                    : Pop
Recorded date                            : 2023-10-27
Original source form/Name                : Taylor Swift Karaoke: 1989 (Taylor's Version)
ISRC                                     : USUG12306687
Copyright                                : © 2023 Taylor Swift ℗ 2023 Taylor Swift
Cover                                    : Yes
Cover type                               : Cover (front)
Cover MIME                               : image/jpeg
Rating                                   : Clean
ITRK                                     : 17
totaltracks                              : 21
totaldiscs                               : 1
UPC                                      : 0602458615982
Guitar                                   : Patrik Berger
Bass                                     : Patrik Berger
Synthesizer                              : Patrik Berger
Programming                              : Patrik Berger
AssociatedPerformer                      : Patrik Berger
ComposerLyricist                         : Patrik Berger
Mastering Engineer                       : Ryan Smith
StudioPersonnel                          : Ryan Smith
Mixer                                    : Serban Ghenea
Asst. Recording Engineer                 : Jack Manning
Vocals                                   : Taylor Swift
Recording Engineer                       : Laura Sisk
Background Vocalist                      : Jack Antonoff
Mix Engineer                             : Bryce Bordone

Audio
Format                                   : PCM
Format settings                          : Little / Signed
Codec ID                                 : 1
Duration                                 : 3 min 0 s
Bit rate mode                            : Constant
Bit rate                                 : 1 411.2 kb/s
Channel(s)                               : 2 channels
Sampling rate                            : 44.1 kHz
Bit depth                                : 16 bits
Stream size                              : 30.3 MiB (93%)

General
Complete name                            : C:\Users\bradl\Desktop\Taylor Swift - Taylor Swift Karaoke; 1989 (Taylor's Version) (2023) [24B-48kHz]\18. Say Don't Go (Taylor's Version) (From The Vault).lrc
File size                                : 2.91 KiB

General
Complete name                            : C:\Users\bradl\Desktop\Taylor Swift - Taylor Swift Karaoke; 1989 (Taylor's Version) (2023) [24B-48kHz]\18. Say Don't Go (Taylor's Version) (From The Vault).wav
Format                                   : Wave
Format settings                          : PcmWaveformat
File size                                : 49.5 MiB
Duration                                 : 4 min 39 s
Overall bit rate mode                    : Constant
Overall bit rate                         : 1 483 kb/s
Album                                    : Taylor Swift Karaoke: 1989 (Taylor's Version)
Album/Performer                          : Taylor Swift
Part/Position                            : 1
Track name                               : Say Don't Go (Taylor's Version) (From The Vault)
Track name/Position                      : 18
Performer                                : Taylor Swift
Director                                 : Taylor Swift
Producer                                 : Taylor Swift
Label                                    : Taylor Swift
Genre                                    : Pop
Recorded date                            : 2023-10-27
Original source form/Name                : Taylor Swift Karaoke: 1989 (Taylor's Version)
ISRC                                     : USUG12306688
Copyright                                : © 2023 Taylor Swift ℗ 2023 Taylor Swift
Cover                                    : Yes
Cover type                               : Cover (front)
Cover MIME                               : image/jpeg
Rating                                   : Clean
ITRK                                     : 18
totaltracks                              : 21
totaldiscs                               : 1
UPC                                      : 0602458615982
Mastering Engineer                       : Ryan Smith
StudioPersonnel                          : Ryan Smith
ComposerLyricist                         : Diane Warren
Mixer                                    : Serban Ghenea
Recording Engineer                       : David Hart
Asst. Recording Engineer                 : Jack Manning
Vocals                                   : Taylor Swift
AssociatedPerformer                      : Taylor Swift
Acoustic Guitar                          : Jack Antonoff
Electric Guitar                          : Jack Antonoff
Percussion                               : Jack Antonoff
Synthesizer                              : Jack Antonoff
Mellotron                                : Jack Antonoff
Programming                              : Jack Antonoff
Background Vocalist                      : Jack Antonoff
Drums                                    : Sean Hutchinson
Saxophone                                : Evan Smith
Bass                                     : Mikey Freedom Hart
Rhodes                                   : Mikey Freedom Hart
Mix Engineer                             : Bryce Bordone

Audio
Format                                   : PCM
Format settings                          : Little / Signed
Codec ID                                 : 1
Duration                                 : 4 min 39 s
Bit rate mode                            : Constant
Bit rate                                 : 1 411.2 kb/s
Channel(s)                               : 2 channels
Sampling rate                            : 44.1 kHz
Bit depth                                : 16 bits
Stream size                              : 47.1 MiB (95%)

General
Complete name                            : C:\Users\bradl\Desktop\Taylor Swift - Taylor Swift Karaoke; 1989 (Taylor's Version) (2023) [24B-48kHz]\19. Now That We Don't Talk (Taylor's Version) (From The Vault).lrc
File size                                : 1.70 KiB

General
Complete name                            : C:\Users\bradl\Desktop\Taylor Swift - Taylor Swift Karaoke; 1989 (Taylor's Version) (2023) [24B-48kHz]\19. Now That We Don't Talk (Taylor's Version) (From The Vault).wav
Format                                   : Wave
Format settings                          : PcmWaveformat
File size                                : 27.0 MiB
Duration                                 : 2 min 26 s
Overall bit rate mode                    : Constant
Overall bit rate                         : 1 548 kb/s
Album                                    : Taylor Swift Karaoke: 1989 (Taylor's Version)
Album/Performer                          : Taylor Swift
Part/Position                            : 1
Track name                               : Now That We Don't Talk (Taylor's Version) (From The Vault)
Track name/Position                      : 19
Performer                                : Taylor Swift
Director                                 : Taylor Swift
Producer                                 : Taylor Swift
Label                                    : Taylor Swift
Genre                                    : Pop
Recorded date                            : 2023-10-27
Original source form/Name                : Taylor Swift Karaoke: 1989 (Taylor's Version)
ISRC                                     : USUG12306689
Copyright                                : © 2023 Taylor Swift ℗ 2023 Taylor Swift
Cover                                    : Yes
Cover type                               : Cover (front)
Cover MIME                               : image/jpeg
Rating                                   : Clean
ITRK                                     : 19
totaltracks                              : 21
totaldiscs                               : 1
UPC                                      : 0602458615982
Mastering Engineer                       : Ryan Smith
StudioPersonnel                          : Ryan Smith
Mixer                                    : Serban Ghenea
Recording Engineer                       : David Hart
Asst. Recording Engineer                 : Jack Manning
Vocals                                   : Taylor Swift
AssociatedPerformer                      : Taylor Swift
ComposerLyricist                         : Taylor Swift
Guitar                                   : Jack Antonoff
Synthesizer                              : Jack Antonoff
Programming                              : Jack Antonoff
Background Vocalist                      : Jack Antonoff
Drums                                    : Sean Hutchinson
Percussion                               : Sean Hutchinson
Saxophone                                : Evan Smith
Electric Guitar                          : Mikey Freedom Hart
Bass                                     : Mikey Freedom Hart
Rhodes                                   : Mikey Freedom Hart
Mix Engineer                             : Bryce Bordone

Audio
Format                                   : PCM
Format settings                          : Little / Signed
Codec ID                                 : 1
Duration                                 : 2 min 26 s
Bit rate mode                            : Constant
Bit rate                                 : 1 411.2 kb/s
Channel(s)                               : 2 channels
Sampling rate                            : 44.1 kHz
Bit depth                                : 16 bits
Stream size                              : 24.6 MiB (91%)

General
Complete name                            : C:\Users\bradl\Desktop\Taylor Swift - Taylor Swift Karaoke; 1989 (Taylor's Version) (2023) [24B-48kHz]\20. Suburban Legends (Taylor's Version) (From The Vault).lrc
File size                                : 1.92 KiB

General
Complete name                            : C:\Users\bradl\Desktop\Taylor Swift - Taylor Swift Karaoke; 1989 (Taylor's Version) (2023) [24B-48kHz]\20. Suburban Legends (Taylor's Version) (From The Vault).wav
Format                                   : Wave
Format settings                          : PcmWaveformat
File size                                : 31.3 MiB
Duration                                 : 2 min 51 s
Overall bit rate mode                    : Constant
Overall bit rate                         : 1 528 kb/s
Album                                    : Taylor Swift Karaoke: 1989 (Taylor's Version)
Album/Performer                          : Taylor Swift
Part/Position                            : 1
Track name                               : Suburban Legends (Taylor's Version) (From The Vault)
Track name/Position                      : 20
Performer                                : Taylor Swift
Director                                 : Taylor Swift
Producer                                 : Taylor Swift
Label                                    : Taylor Swift
Genre                                    : Pop
Recorded date                            : 2023-10-27
Original source form/Name                : Taylor Swift Karaoke: 1989 (Taylor's Version)
ISRC                                     : USUG12306690
Copyright                                : © 2023 Taylor Swift ℗ 2023 Taylor Swift
Cover                                    : Yes
Cover type                               : Cover (front)
Cover MIME                               : image/jpeg
Rating                                   : Clean
ITRK                                     : 20
totaltracks                              : 21
totaldiscs                               : 1
UPC                                      : 0602458615982
Mastering Engineer                       : Ryan Smith
StudioPersonnel                          : Ryan Smith
Mixer                                    : Serban Ghenea
Recording Engineer                       : David Hart
Asst. Recording Engineer                 : Jack Manning
Vocals                                   : Taylor Swift
AssociatedPerformer                      : Taylor Swift
ComposerLyricist                         : Taylor Swift
Synthesizer                              : Jack Antonoff
Programming                              : Jack Antonoff
Background Vocalist                      : Jack Antonoff
Drums                                    : Sean Hutchinson
Percussion                               : Sean Hutchinson
Guitar                                   : Evan Smith
Saxophone                                : Evan Smith
Organ                                    : Mikey Freedom Hart
Mix Engineer                             : Bryce Bordone

Audio
Format                                   : PCM
Format settings                          : Little / Signed
Codec ID                                 : 1
Duration                                 : 2 min 51 s
Bit rate mode                            : Constant
Bit rate                                 : 1 411.2 kb/s
Channel(s)                               : 2 channels
Sampling rate                            : 44.1 kHz
Bit depth                                : 16 bits
Stream size                              : 28.9 MiB (92%)

General
Complete name                            : C:\Users\bradl\Desktop\Taylor Swift - Taylor Swift Karaoke; 1989 (Taylor's Version) (2023) [24B-48kHz]\21. Is It Over Now (Taylor's Version) (From The Vault).lrc
File size                                : 2.36 KiB

General
Complete name                            : C:\Users\bradl\Desktop\Taylor Swift - Taylor Swift Karaoke; 1989 (Taylor's Version) (2023) [24B-48kHz]\21. Is It Over Now (Taylor's Version) (From The Vault).wav
Format                                   : Wave
Format settings                          : PcmWaveformat
File size                                : 41.0 MiB
Duration                                 : 3 min 49 s
Overall bit rate mode                    : Constant
Overall bit rate                         : 1 498 kb/s
Album                                    : Taylor Swift Karaoke: 1989 (Taylor's Version)
Album/Performer                          : Taylor Swift
Part/Position                            : 1
Track name                               : Is It Over Now? (Taylor's Version) (From The Vault)
Track name/Position                      : 21
Performer                                : Taylor Swift
Director                                 : Taylor Swift
Producer                                 : Taylor Swift
Label                                    : Taylor Swift
Genre                                    : Pop
Recorded date                            : 2023-10-27
Original source form/Name                : Taylor Swift Karaoke: 1989 (Taylor's Version)
ISRC                                     : USUG12306691
Copyright                                : © 2023 Taylor Swift ℗ 2023 Taylor Swift
Cover                                    : Yes
Cover type                               : Cover (front)
Cover MIME                               : image/jpeg
Rating                                   : Clean
ITRK                                     : 21
totaltracks                              : 21
totaldiscs                               : 1
UPC                                      : 0602458615982
Mastering Engineer                       : Ryan Smith
StudioPersonnel                          : Ryan Smith
Mixer                                    : Serban Ghenea
Recording Engineer                       : David Hart
Asst. Recording Engineer                 : Jack Manning
Vocals                                   : Taylor Swift
AssociatedPerformer                      : Taylor Swift
ComposerLyricist                         : Taylor Swift
Synthesizer                              : Jack Antonoff
Programming                              : Jack Antonoff
Background Vocalist                      : Jack Antonoff
Drums                                    : Sean Hutchinson
Percussion                               : Sean Hutchinson
Saxophone                                : Evan Smith
Mix Engineer                             : Bryce Bordone

Audio
Format                                   : PCM
Format settings                          : Little / Signed
Codec ID                                 : 1
Duration                                 : 3 min 49 s
Bit rate mode                            : Constant
Bit rate                                 : 1 411.2 kb/s
Channel(s)                               : 2 channels
Sampling rate                            : 44.1 kHz
Bit depth                                : 16 bits
Stream size                              : 38.6 MiB (94%)

General
Complete name                            : C:\Users\bradl\Desktop\Taylor Swift - Taylor Swift Karaoke; 1989 (Taylor's Version) (2023) [24B-48kHz]\22. Sweeter Than Fiction (Taylor's Version).lrc
File size                                : 2.92 KiB

General
Complete name                            : C:\Users\bradl\Desktop\Taylor Swift - Taylor Swift Karaoke; 1989 (Taylor's Version) (2023) [24B-48kHz]\22. Sweeter Than Fiction (Taylor's Version).wav
Format                                   : Wave
Format settings                          : PcmWaveformat
File size                                : 42.6 MiB
Duration                                 : 3 min 59 s
Overall bit rate mode                    : Constant
Overall bit rate                         : 1 495 kb/s
Album                                    : Taylor Swift Karaoke: 1989 (Taylor's Version)
Album/Performer                          : Taylor Swift
Track name                               : Sweeter Than Fiction (Taylor's Version)
Track name/Position                      : 22
Performer                                : Taylor Swift
Composer                                 : Jack Antonoff, Taylor Swift
Director                                 : Taylor Swift
Genre                                    : Pop
Recorded date                            : 2023-10-27
Writing library                          : Lavf57.83.100
Original source form/Name                : Taylor Swift Karaoke: 1989 (Taylor's Version)
Cover                                    : Yes
Cover type                               : Cover (front)
Cover MIME                               : image/jpeg
ITRK                                     : 22

Audio
Format                                   : PCM
Format settings                          : Little / Signed
Codec ID                                 : 1
Duration                                 : 3 min 59 s
Bit rate mode                            : Constant
Bit rate                                 : 1 411.2 kb/s
Channel(s)                               : 2 channels
Sampling rate                            : 44.1 kHz
Bit depth                                : 16 bits
Stream size                              : 40.3 MiB (94%)

General
Complete name                            : C:\Users\bradl\Desktop\Taylor Swift - Taylor Swift Karaoke; 1989 (Taylor's Version) (2023) [24B-48kHz]\22. Sweeter Than Fiction (Taylor’s Version).wav
Format                                   : Wave
Format settings                          : PcmWaveformat
File size                                : 42.7 MiB
Duration                                 : 3 min 59 s
Overall bit rate mode                    : Constant
Overall bit rate                         : 1 494 kb/s
Album                                    : Taylor Swift Karaoke: 1989 (Taylor's Version)
Album/Performer                          : Taylor Swift
Track name                               : Sweeter Than Fiction (Taylor's Version)
Track name/Position                      : 22
Performer                                : Taylor Swift
Composer                                 : Jack Antonoff, Taylor Swift
Director                                 : Taylor Swift
Genre                                    : Pop
Recorded date                            : 2023-10-27
Writing library                          : Lavf57.83.100
Original source form/Name                : Taylor Swift Karaoke: 1989 (Taylor's Version)
Cover                                    : Yes
Cover type                               : Cover (front)
Cover MIME                               : image/jpeg
ITRK                                     : 22

Audio
Format                                   : PCM
Format settings                          : Little / Signed
Codec ID                                 : 1
Duration                                 : 3 min 59 s
Bit rate mode                            : Constant
Bit rate                                 : 1 411.2 kb/s
Channel(s)                               : 2 channels
Sampling rate                            : 44.1 kHz
Bit depth                                : 16 bits
Stream size                              : 40.4 MiB (94%)

General
Complete name                            : C:\Users\bradl\Desktop\Taylor Swift - Taylor Swift Karaoke; 1989 (Taylor's Version) (2023) [24B-48kHz]\cover.jpg
Format                                   : JPEG
File size                                : 2.38 MiB

Image
Format                                   : JPEG
Width                                    : 1 400 pixels
Height                                   : 1 400 pixels
Color space                              : YUV
Chroma subsampling                       : 4:4:4
Bit depth                                : 8 bits
Compression mode                         : Lossy
Stream size                              : 2.38 MiB (100%)
ColorSpace_ICC                           : RGB

</pre>
</div></div>
</div><div style="text-align: center"><span style="font-family: 'Georgia'"><br>
<div class="bbCodeBlock bbCodeVfcHH HiddenContent">
<div class="attribution type">Hidden Content:</div>
<blockquote>You must either reply or click 'Like' to see the hidden information contained here.</blockquote>
</div></span>​</div>
<div class="messageTextEndMarker">&nbsp;</div>
</blockquote>
</article>]]></description>
                <author><![CDATA[bspengeman]]></author>
                </item>

                </channel></rss>